# xmcd
#
# Track frame offsets:
#	150
#	11130
#	22079
#	36529
#	48608
#	58244
#	71961
#	81225
#	95747
#	107228
#
# Disc length: 1576 seconds
#
# Revision: 1
# Processed by: cddbd v1.5.2PL0 Copyright (c) Steve Scherf et al.
# Submitted via: audiograbber 1.83.01
#
DISCID=9a06260a
DTITLE=Bobby Bare and The Hillsiders - The English Country Side
DYEAR=1967
DGENRE=Country
TTITLE0=You All Come (Y'all Come)
TTITLE1=Love's Gonna Live Here
TTITLE2=I Love You Drops
TTITLE3=I Washed My Face In The Morning Dew
TTITLE4=Goin' Home
TTITLE5=The Great Snow Man
TTITLE6=Blue Is My Lonely Room
TTITLE7=Release Me (And Let Me Love Again)
TTITLE8=Sweet Dreams
TTITLE9=Six Days On The Road
EXTD=
EXTT0=
EXTT1=
EXTT2=
EXTT3=
EXTT4=
EXTT5=
EXTT6=
EXTT7=
EXTT8=
EXTT9=
PLAYORDER=
